<?xml version="1.0" encoding="UTF-8"?>
<svg xmlns="http://www.w3.org/2000/svg" version="1.1" viewBox="0 0 20 20">
    <path d="M3.92,4.32c-.05.56.02,1.14-.02,1.71-.04.57-.12,1.13-.23,1.69-.18.79-.67,1.47-1.35,1.91,1.34.87,1.49,2.22,1.58,3.59.04.74.03,1.48.1,2.22.06.57.28.71.87.73.24,0,.49,0,.76,0v1.76c-1.74.3-3.17-.2-3.52-1.67-.12-.54-.19-1.09-.22-1.64-.04-.59.03-1.18-.02-1.76-.13-1.61-.33-2.15-1.88-2.23v-2c.11-.03.22-.04.34-.06.85-.04,1.21-.3,1.39-1.14.09-.47.14-.94.16-1.42.02-.92.08-1.84.2-2.76.22-1.31,1.03-1.94,2.38-2.02.38-.02.76,0,1.2,0v1.79c-.18.01-.34.04-.51.04-1.1-.04-1.15.33-1.24,1.24M6.02,8.48h-.03c-.64-.04-1.18.45-1.22,1.08-.04.64.45,1.18,1.08,1.22,0,0,.02,0,.03,0h.08c.63.04,1.16-.44,1.2-1.07v-.06c.01-.64-.5-1.16-1.14-1.17h0ZM9.98,8.48c-.61-.02-1.12.46-1.14,1.07,0,.04,0,.07,0,.11-.03.6.43,1.11,1.03,1.13.05,0,.1,0,.14,0,.59.03,1.1-.42,1.13-1.01,0-.05,0-.11,0-.16.03-.6-.43-1.11-1.03-1.14-.05,0-.09,0-.14,0h0ZM14.04,8.48c-.65-.01-1.18.5-1.2,1.14,0,.64.52,1.16,1.16,1.16h.02c.58.1,1.17-.46,1.21-1.14,0-.65-.53-1.17-1.18-1.17,0,0,0,0,0,0h0ZM19.6,8.57c-.73-.03-1.1-.28-1.28-.97-.11-.44-.18-.9-.21-1.36-.05-.85-.04-1.7-.1-2.55-.13-2.01-1.59-2.71-3.7-2.36v1.74c.33,0,.59,0,.85,0,.45,0,.79.18.83.68.04.45.04.92.09,1.38.09.92.14,1.84.3,2.75.18.73.64,1.36,1.29,1.76-1.12.75-1.45,1.83-1.5,3.03-.03.83-.05,1.66-.09,2.5-.04.76-.3,1-1.07,1.02-.21,0-.42.03-.66.04v1.79c.45,0,.86.03,1.27,0,1.28-.08,2.05-.7,2.3-1.93.11-.68.17-1.37.19-2.06.04-.63.04-1.27.1-1.9.09-.98.54-1.38,1.52-1.45.09-.01.18-.03.27-.06v-2c-.16-.02-.28-.04-.4-.04h0Z" fill-rule="evenodd"/>
</svg>
