<?xml version="1.0" encoding="UTF-8"?>
<svg id="Layer_1" xmlns="http://www.w3.org/2000/svg" version="1.1" viewBox="0 0 407 116">
  <defs>
    <style>
      .st0 {
        fill: #fff;
      }

      .st1 {
        fill: #85ea2d;
      }

      .st2 {
        fill: #212529;
      }
    </style>
  </defs>
  <path id="logo_small_svg__Path_2938" class="st1" d="M50.13,98.46c-26.37,0-47.74-21.5-47.74-48.03,0-26.53,21.38-48.03,47.74-48.03,26.37,0,47.74,21.5,47.74,48.03,0,26.52-21.37,48.03-47.74,48.03h0"/>
  <path id="logo_small_svg__Path_2939" class="st2" d="M50.13,4.81c25.05,0,45.35,20.43,45.35,45.62s-20.3,45.62-45.35,45.62S4.78,75.63,4.78,50.43h0c0-25.2,20.31-45.62,45.35-45.62M50.13,0C22.44,0,0,22.58,0,50.43s22.44,50.43,50.13,50.43,50.13-22.58,50.13-50.43h0C100.26,22.58,77.82,0,50.13,0"/>
  <path id="logo_small_svg__Path_2940" class="st2" d="M31.56,34.13c-.15,1.73.06,3.51-.06,5.26-.13,1.75-.36,3.48-.69,5.2-.56,2.42-2.04,4.53-4.11,5.88,4.09,2.68,4.55,6.83,4.82,11.03.14,2.27.08,4.56.31,6.81.17,1.75.85,2.19,2.64,2.25.73.02,1.48,0,2.33,0v5.39c-5.3.91-9.68-.6-10.76-5.12-.35-1.66-.57-3.35-.66-5.04-.12-1.8.08-3.61-.06-5.41-.39-4.95-1.02-6.61-5.72-6.85v-6.15c.34-.08.68-.14,1.03-.17,2.58-.14,3.68-.93,4.24-3.49.27-1.44.43-2.9.48-4.36.06-2.83.26-5.66.6-8.47.67-4.01,3.14-5.95,7.25-6.19,1.16-.06,2.33,0,3.66,0v5.51c-.56.04-1.04.12-1.54.12-3.34-.12-3.52,1.03-3.77,3.82M37.98,46.89h-.08c-1.94-.12-3.61,1.37-3.73,3.32s1.36,3.63,3.3,3.75c.03,0,.05,0,.08,0h.23c1.91.11,3.55-1.36,3.66-3.28v-.19c.03-1.96-1.52-3.57-3.47-3.61h0ZM50.07,46.89c-1.86-.06-3.42,1.4-3.49,3.28,0,.11,0,.22.02.33-.09,1.84,1.32,3.39,3.15,3.48.15,0,.29,0,.44,0,1.8.11,3.35-1.27,3.46-3.09,0-.17,0-.33,0-.5.09-1.84-1.32-3.41-3.15-3.5-.14,0-.28,0-.42,0h0ZM62.45,46.89c-1.97-.04-3.6,1.53-3.66,3.51,0,1.97,1.57,3.56,3.53,3.57,0,0,.01,0,.02,0h.04c1.77.31,3.57-1.41,3.68-3.49,0-1.99-1.61-3.59-3.59-3.59,0,0-.01,0-.02,0h0ZM79.43,47.18c-2.24-.1-3.35-.85-3.91-2.99-.35-1.37-.56-2.76-.64-4.17-.15-2.6-.14-5.22-.31-7.82-.4-6.17-4.84-8.32-11.28-7.25v5.35c1.02,0,1.81,0,2.61.02,1.37.02,2.4.54,2.54,2.08.14,1.4.14,2.81.27,4.23.27,2.81.42,5.66.9,8.44.55,2.25,1.96,4.18,3.93,5.39-3.41,2.31-4.42,5.6-4.59,9.31-.1,2.54-.15,5.1-.29,7.66-.12,2.33-.92,3.08-3.26,3.14-.66.02-1.29.08-2.02.12v5.49c1.37,0,2.62.08,3.87,0,3.89-.23,6.25-2.13,7.01-5.93.33-2.09.52-4.21.57-6.33.14-1.94.12-3.9.31-5.82.29-3.01,1.66-4.25,4.65-4.44.28-.03.56-.1.83-.19v-6.15c-.5-.06-.84-.12-1.21-.14h0Z"/>
  <path id="logo_small_svg__Path_2936" class="st0" d="M359.59,71.25h-.7v-3.71h-1.26v-.6h3.23v.6h-1.26v3.71Z"/>
  <path id="logo_small_svg__Path_2937" class="st0" d="M363.67,71.25l-1.24-3.6h-.02c.03.54.05,1.04.05,1.51v2.1h-.64v-4.32h.99l1.19,3.43h.02l1.23-3.43h.99v4.32h-.68v-2.14c0-.49.02-.98.04-1.46h-.02l-1.29,3.6h-.62Z"/>
  <path id="logo_small_svg__Path_2941" class="st0" d="M152.29,58.59c.17,3.7-1.47,7.25-4.39,9.5-2.93,2.27-6.9,3.41-11.92,3.41-5.44,0-9.62-.71-12.55-2.12v-5.17c1.98.83,4.04,1.47,6.15,1.89,2.17.46,4.37.69,6.59.69,3.56,0,6.23-.68,8.03-2.04,1.78-1.32,2.79-3.44,2.7-5.67.06-1.38-.27-2.74-.96-3.93-.82-1.19-1.92-2.16-3.2-2.82-2.19-1.17-4.47-2.15-6.82-2.93-4.27-1.54-7.32-3.36-9.14-5.46-1.9-2.31-2.88-5.24-2.75-8.24-.12-3.31,1.37-6.48,3.99-8.5,2.66-2.1,6.17-3.16,10.54-3.16,4.32-.05,8.61.81,12.58,2.52l-1.66,4.67c-3.48-1.53-7.24-2.35-11.04-2.4-2.35-.14-4.67.51-6.62,1.83-1.58,1.19-2.47,3.1-2.38,5.08-.06,1.37.25,2.72.88,3.93.74,1.17,1.76,2.14,2.97,2.81,2.03,1.14,4.17,2.09,6.38,2.82,4.81,1.72,8.12,3.58,9.93,5.55,1.86,2.12,2.84,4.88,2.71,7.71"/>
  <path id="logo_small_svg__Path_2942" class="st0" d="M185.37,70.87l-6.3-20.29c-.4-1.24-1.14-4.06-2.23-8.46h-.25c-.84,3.68-1.57,6.52-2.2,8.52l-6.5,20.23h-6.02l-9.38-34.59h5.46c2.22,8.69,3.91,15.31,5.07,19.85.84,3.02,1.51,6.09,1.99,9.18h.25c.23-1.2.6-2.75,1.11-4.66.51-1.9.96-3.41,1.33-4.53l6.31-19.85h5.65l6.15,19.85c1.01,2.98,1.8,6.03,2.38,9.12h.25c.16-1.18.39-2.35.67-3.5.37-1.58,2.55-10.07,6.54-25.47h5.4l-9.51,34.59h-6.18Z"/>
  <path id="logo_small_svg__Path_2943" class="st0" d="M225.28,70.87l-1.04-4.92h-.25c-1.34,1.85-3.1,3.36-5.13,4.4-2.02.83-4.2,1.22-6.39,1.15-3.41,0-6.08-.88-8.02-2.65s-2.91-4.28-2.91-7.54c0-6.99,5.55-10.65,16.66-10.99l5.84-.19v-2.14c0-2.71-.58-4.72-1.74-6.01-1.16-1.29-3.02-1.94-5.56-1.94-3.4.14-6.72,1.04-9.73,2.65l-1.6-4.01c1.76-.95,3.63-1.68,5.57-2.18,1.98-.52,4.02-.79,6.07-.79,4.1,0,7.14.92,9.12,2.75,1.98,1.83,2.97,4.77,2.97,8.81v23.61h-3.86ZM213.51,67.18c2.8.16,5.55-.8,7.64-2.68,1.93-2,2.94-4.73,2.78-7.51v-3.13l-5.21.22c-4.14.15-7.13.79-8.96,1.94-1.83,1.14-2.88,3.19-2.75,5.35-.11,1.63.52,3.22,1.71,4.32,1.36,1.06,3.06,1.59,4.78,1.48h0Z"/>
  <path id="logo_small_svg__Path_2944" class="st0" d="M264.85,36.28v3.31l-6.37.76c1.49,1.99,2.29,4.42,2.26,6.91.13,3.09-1.14,6.07-3.45,8.11-2.3,2.02-5.46,3.02-9.48,3.02-.97,0-1.93-.08-2.89-.25-2.22,1.18-3.33,2.67-3.33,4.46-.05.87.41,1.68,1.16,2.1,1.25.55,2.62.78,3.98.68h6.09c3.72,0,6.58.79,8.58,2.37,2.04,1.67,3.16,4.24,3,6.88.15,3.54-1.6,6.88-4.58,8.76-3.05,2.01-7.51,3.01-13.37,3.01-4.5,0-7.96-.84-10.4-2.52-2.38-1.57-3.76-4.28-3.65-7.13-.04-2.01.68-3.96,2-5.46,1.5-1.63,3.48-2.72,5.65-3.13-.89-.41-1.65-1.05-2.21-1.86-.6-.86-.91-1.89-.89-2.94-.02-1.18.33-2.34,1-3.31.86-1.12,1.94-2.05,3.17-2.75-1.81-.76-3.33-2.08-4.34-3.76-1.13-1.81-1.72-3.92-1.68-6.06,0-3.79,1.13-6.71,3.39-8.76,2.26-2.05,5.46-3.08,9.6-3.08,1.64-.02,3.28.19,4.86.63h11.9ZM237.42,76.68c-.07,1.75.84,3.39,2.35,4.26,2.08,1.09,4.41,1.59,6.75,1.45,4.37,0,7.61-.66,9.71-1.97,1.95-1.06,3.17-3.12,3.15-5.35,0-1.87-.58-3.17-1.73-3.9-1.15-.73-3.32-1.09-6.49-1.09h-6.24c-1.98-.12-3.95.48-5.52,1.7-1.36,1.24-2.09,3.04-1.98,4.89M240.25,47.36c-.15,2.04.6,4.05,2.04,5.49,1.59,1.32,3.62,1.99,5.68,1.86,5.08,0,7.62-2.48,7.62-7.45,0-5.2-2.57-7.8-7.72-7.8-2.07-.14-4.11.58-5.65,1.99-1.32,1.33-1.98,3.29-1.98,5.9"/>
  <path id="logo_small_svg__Path_2945" class="st0" d="M299.45,36.28v3.31l-6.37.76c1.49,1.99,2.29,4.42,2.26,6.91.13,3.09-1.14,6.07-3.45,8.11-2.3,2.02-5.46,3.02-9.47,3.02-.97,0-1.93-.08-2.89-.25-2.22,1.18-3.33,2.66-3.33,4.45-.05.87.41,1.68,1.16,2.1,1.25.55,2.62.78,3.98.68h6.09c3.72,0,6.58.79,8.58,2.37,2.04,1.67,3.16,4.24,3,6.88.15,3.54-1.6,6.88-4.58,8.76-3.05,2.01-7.51,3.01-13.36,3.01-4.5,0-7.96-.84-10.4-2.52-2.38-1.57-3.76-4.28-3.66-7.13-.04-2.01.68-3.96,2-5.46,1.5-1.63,3.48-2.72,5.65-3.13-.89-.41-1.66-1.05-2.21-1.86-.6-.86-.91-1.89-.89-2.94-.02-1.18.33-2.34,1-3.31.86-1.12,1.94-2.05,3.17-2.75-1.81-.76-3.33-2.07-4.34-3.76-1.13-1.81-1.72-3.92-1.68-6.06,0-3.79,1.13-6.71,3.39-8.76s5.46-3.08,9.6-3.08c1.64-.02,3.28.19,4.86.63h11.9ZM272.03,76.68c-.07,1.75.84,3.39,2.35,4.26,2.08,1.09,4.41,1.59,6.74,1.45,4.37,0,7.61-.66,9.71-1.97,1.95-1.06,3.17-3.12,3.15-5.35,0-1.87-.58-3.17-1.73-3.9-1.15-.73-3.32-1.09-6.49-1.09h-6.24c-1.99-.12-3.95.48-5.52,1.7-1.36,1.24-2.09,3.04-1.98,4.89M274.86,47.36c-.15,2.04.6,4.05,2.04,5.49,1.59,1.32,3.62,1.99,5.68,1.86,5.08,0,7.62-2.48,7.62-7.45,0-5.2-2.57-7.8-7.72-7.8-2.07-.14-4.11.58-5.65,1.99-1.32,1.33-1.98,3.29-1.98,5.9"/>
  <path id="logo_small_svg__Path_2946" class="st0" d="M317.13,71.5c-5.08,0-9.09-1.56-12.03-4.67-2.94-3.11-4.41-7.44-4.41-12.97,0-5.58,1.36-10.01,4.09-13.29,2.7-3.27,6.77-5.09,11-4.92,3.87-.19,7.63,1.38,10.23,4.27,2.51,2.85,3.77,6.62,3.77,11.29v3.31h-23.69c.1,4.06,1.12,7.14,3.06,9.25,1.94,2.1,4.66,3.16,8.17,3.16,3.78-.02,7.52-.81,10.98-2.34v4.67c-1.68.75-3.43,1.32-5.22,1.72-1.96.38-3.95.55-5.95.52M315.72,40.04c-2.49-.11-4.9.88-6.6,2.71-1.77,2.11-2.79,4.75-2.91,7.51h17.98c0-3.3-.73-5.83-2.2-7.59-1.57-1.81-3.89-2.78-6.27-2.64"/>
  <path id="logo_small_svg__Path_2947" class="st0" d="M351.33,35.65c1.38-.01,2.76.11,4.11.38l-.72,4.86c-1.23-.29-2.5-.45-3.76-.47-2.77,0-5.39,1.25-7.14,3.41-2.01,2.36-3.07,5.39-2.97,8.49v18.56h-5.21v-34.59h4.3l.6,6.41h.25c1.12-2.07,2.69-3.85,4.61-5.21,1.75-1.2,3.81-1.84,5.93-1.83"/>
  <path id="logo_small_svg__Path_2948" class="st0" d="M256.09,97.42s-3.44-.39-4.86-.39c-2.06,0-3.12.74-3.12,2.2,0,1.58.88,1.95,3.76,2.74,3.53.99,4.81,1.93,4.81,4.82,0,3.7-2.3,5.31-5.62,5.31-1.85-.08-3.69-.3-5.5-.67l.27-2.2s3.31.44,5.06.44c2.09,0,3.04-.94,3.04-2.72,0-1.43-.76-1.93-3.34-2.54-3.63-.94-5.2-2.05-5.2-4.99,0-3.41,2.23-4.81,5.6-4.81,1.79.07,3.57.27,5.33.59l-.22,2.23Z"/>
  <path id="logo_small_svg__Path_2949" class="st0" d="M263.21,94.9h4.74l3.76,13.21,3.76-13.21h4.76v16.92h-2.76v-14.62h-.15l-4.2,13.93h-2.85l-4.2-13.93h-.15v14.62h-2.72v-16.92Z"/>
  <path id="logo_small_svg__Path_2950" class="st0" d="M322.42,94.9h12.27v2.44h-4.74v14.47h-2.75v-14.47h-4.79v-2.44Z"/>
  <path id="logo_small_svg__Path_2951" class="st0" d="M346.55,94.9c3.34,0,5.13,1.26,5.13,4.4,0,2.05-.64,3.06-1.99,3.8,1.45.57,2.4,1.6,2.4,3.93,0,3.46-2.09,4.79-5.35,4.79h-6.58v-16.92h6.38ZM342.9,97.27v4.84h3.61c1.67,0,2.4-.84,2.4-2.49s-.83-2.35-2.51-2.35h-3.51ZM342.9,104.43v5.01h3.71c1.69,0,2.7-.54,2.7-2.57s-1.42-2.44-2.75-2.44h-3.66Z"/>
  <path id="logo_small_svg__Path_2952" class="st0" d="M358.86,94.9h10.61v2.4h-7.88v4.79h6.41v2.35h-6.41v4.96h7.88v2.42h-10.61v-16.92Z"/>
  <path id="logo_small_svg__Path_2953" class="st0" d="M379.23,94.9h5.43l4.17,16.92h-2.75l-1.24-4.96h-5.79l-1.24,4.96h-2.72l4.15-16.92ZM379.59,104.44h4.72l-1.74-7.24h-1.23l-1.75,7.24Z"/>
  <path id="logo_small_svg__Path_2954" class="st0" d="M397.62,106.81v5.01h-2.72v-16.92h6.38c3.71,0,5.69,2.14,5.69,5.89,0,2.4-.96,4.56-2.75,5.4l2.77,5.63h-3l-2.43-5.01h-3.95ZM401.28,97.27h-3.66v7.16h3.71c2.06,0,2.85-1.86,2.85-3.62,0-1.92-.94-3.54-2.9-3.54h0Z"/>
  <path id="logo_small_svg__Path_2955" class="st0" d="M290.31,94.9h5.42l4.17,16.92h-2.75l-1.24-4.96h-5.79l-1.24,4.96h-2.72l4.15-16.92ZM290.67,104.44h4.72l-1.74-7.24h-1.23l-1.75,7.24Z"/>
  <path id="logo_small_svg__Path_2956" class="st0" d="M308.7,106.81v5.01h-2.72v-16.92h6.38c3.71,0,5.69,2.14,5.69,5.89,0,2.4-.96,4.56-2.75,5.4l2.77,5.63h-3l-2.43-5.01h-3.95ZM312.36,97.27h-3.66v7.16h3.71c2.06,0,2.85-1.86,2.85-3.62,0-1.92-.93-3.54-2.9-3.54"/>
  <path id="logo_small_svg__Path_2957" class="st0" d="M130.58,108.52c.05,1-.4,1.95-1.18,2.56-.94.66-2.07.98-3.21.92-1.15.06-2.31-.14-3.38-.57v-1.39c.53.22,1.09.39,1.66.51.58.12,1.18.19,1.77.19.76.05,1.52-.14,2.16-.55.48-.35.75-.93.73-1.52.02-.37-.07-.74-.26-1.06-.22-.32-.52-.58-.86-.76-.59-.31-1.2-.58-1.84-.79-.93-.28-1.77-.78-2.46-1.47-.51-.62-.78-1.41-.74-2.22-.03-.89.37-1.74,1.07-2.29.82-.6,1.82-.9,2.84-.85,1.16-.01,2.32.22,3.39.68l-.45,1.26c-.94-.41-1.95-.63-2.97-.65-.63-.04-1.26.14-1.78.49-.42.32-.66.83-.64,1.37-.01.37.07.73.24,1.06.2.32.48.58.8.76.55.31,1.12.56,1.72.76.99.29,1.91.8,2.67,1.5.5.57.76,1.31.72,2.07"/>
  <path id="logo_small_svg__Path_2958" class="st0" d="M134.42,102.51v6.04c-.05.61.14,1.22.52,1.7.43.41,1.02.61,1.61.56.79.07,1.57-.22,2.12-.8.51-.77.75-1.69.67-2.61v-4.89h1.4v9.31h-1.16l-.2-1.25h-.08c-.29.46-.7.83-1.2,1.05-.55.25-1.14.38-1.74.36-.92.07-1.82-.22-2.53-.81-.62-.71-.93-1.64-.84-2.58v-6.09h1.42Z"/>
  <path id="logo_small_svg__Path_2959" class="st0" d="M148.21,111.99c-.57,0-1.13-.11-1.65-.34-.5-.23-.93-.58-1.25-1.03h-.1c.07.51.1,1.03.1,1.55v3.83h-1.4v-13.49h1.14l.19,1.27h.07c.32-.47.75-.86,1.26-1.11.52-.24,1.08-.35,1.65-.34,1.09-.06,2.15.41,2.84,1.27,1.34,2.18,1.33,4.94-.02,7.11-.69.85-1.73,1.33-2.82,1.27M148.01,103.54c-.77-.07-1.53.22-2.05.79-.48.74-.71,1.63-.65,2.51v.31c-.08.98.14,1.96.65,2.81.52.6,1.3.92,2.09.85.75.03,1.46-.34,1.88-.98.49-.81.73-1.75.68-2.69.06-.94-.18-1.88-.68-2.67-.44-.62-1.16-.97-1.92-.93h0Z"/>
  <path id="logo_small_svg__Path_2960" class="st0" d="M159.07,111.99c-.57,0-1.13-.11-1.65-.34-.5-.23-.93-.58-1.25-1.03h-.1c.07.51.1,1.03.1,1.55v3.83h-1.4v-13.49h1.14l.19,1.27h.07c.32-.47.75-.86,1.26-1.11.52-.24,1.08-.35,1.65-.34,1.09-.06,2.15.41,2.84,1.27,1.34,2.18,1.33,4.94-.02,7.11-.69.85-1.73,1.33-2.82,1.27M158.87,103.54c-.77-.07-1.53.22-2.05.79-.48.74-.71,1.63-.65,2.51v.31c-.08.98.14,1.96.65,2.81.52.6,1.3.92,2.09.85.75.03,1.46-.34,1.88-.98.49-.81.73-1.75.68-2.69.06-.94-.18-1.88-.68-2.67-.44-.62-1.16-.97-1.91-.93h0Z"/>
  <path id="logo_small_svg__Path_2961" class="st0" d="M173.67,107.16c.08,1.29-.33,2.56-1.14,3.56-.81.87-1.96,1.34-3.15,1.28-.77.01-1.54-.19-2.2-.59-.65-.4-1.17-.99-1.49-1.68-.36-.8-.54-1.68-.52-2.57-.08-1.28.33-2.55,1.13-3.55.81-.87,1.96-1.33,3.14-1.27,1.17-.05,2.3.42,3.09,1.3.8.99,1.21,2.24,1.14,3.52M166.62,107.16c-.06.96.19,1.92.71,2.72,1.04,1.16,2.82,1.25,3.98.2.07-.06.14-.13.2-.2.53-.8.78-1.76.71-2.72.06-.95-.19-1.9-.71-2.7-.51-.63-1.3-.98-2.1-.92-.8-.05-1.57.28-2.08.91-.52.8-.77,1.75-.7,2.71h0Z"/>
  <path id="logo_small_svg__Path_2962" class="st0" d="M180.6,102.34c.37,0,.74.03,1.1.1l-.19,1.31c-.33-.08-.67-.12-1.01-.13-.75,0-1.45.34-1.92.92-.54.63-.83,1.45-.8,2.29v5h-1.4v-9.31h1.16l.16,1.72h.07c.3-.56.72-1.04,1.24-1.4.47-.33,1.03-.5,1.6-.49h0Z"/>
  <path id="logo_small_svg__Path_2963" class="st0" d="M187.45,110.83c.24,0,.48-.02.72-.06.19-.03.37-.06.55-.11v1.08c-.21.09-.44.15-.67.18-.26.05-.53.07-.8.07-1.79,0-2.69-.95-2.69-2.85v-5.54h-1.33v-.68l1.33-.59.59-1.99h.81v2.16h2.69v1.1h-2.69v5.48c-.03.47.11.93.4,1.29.28.31.68.47,1.09.45"/>
  <path id="logo_small_svg__Path_2964" class="st0" d="M194.64,111.99c-1.21.06-2.39-.39-3.24-1.26-.84-.96-1.26-2.22-1.19-3.49-.07-1.29.32-2.55,1.1-3.58.73-.88,1.82-1.37,2.96-1.33,1.04-.05,2.05.37,2.75,1.15.7.85,1.07,1.93,1.01,3.04v.89h-6.38c-.04.9.26,1.79.82,2.49.58.59,1.38.9,2.2.85,1.02,0,2.02-.22,2.96-.63v1.26c-.45.2-.92.36-1.4.46-.53.1-1.07.15-1.6.14h0ZM194.26,103.52c-.67-.03-1.32.24-1.78.73-.47.57-.75,1.28-.78,2.02h4.84c.05-.73-.16-1.45-.59-2.04-.42-.49-1.05-.75-1.69-.71h0Z"/>
  <path id="logo_small_svg__Path_2965" class="st0" d="M207.08,110.57h-.08c-.66.95-1.76,1.49-2.91,1.42-1.08.06-2.13-.41-2.82-1.25-.73-1.03-1.09-2.29-1.01-3.55-.08-1.27.28-2.54,1.01-3.58.68-.85,1.73-1.33,2.82-1.27,1.13-.06,2.22.46,2.89,1.38h.11l-.06-.67-.03-.65v-3.79h1.4v13.22h-1.14l-.19-1.25ZM204.27,110.81c.78.07,1.54-.22,2.08-.79.49-.75.72-1.64.65-2.54v-.3c.08-.99-.14-1.98-.65-2.82-.52-.6-1.3-.92-2.09-.85-.75-.03-1.47.33-1.89.96-.48.82-.71,1.77-.65,2.72-.06.94.16,1.88.65,2.69.44.61,1.16.96,1.91.91h0Z"/>
  <path id="logo_small_svg__Path_2966" class="st0" d="M220.87,102.36c1.09-.06,2.14.41,2.83,1.25,1.35,2.18,1.35,4.94,0,7.11-.69.85-1.74,1.32-2.82,1.27-.57,0-1.13-.11-1.65-.34-.5-.23-.93-.58-1.25-1.03h-.1l-.3,1.2h-1v-13.22h1.4v3.22c0,.72-.02,1.36-.07,1.94h.07c.66-.94,1.76-1.46,2.9-1.4M220.67,103.54c-.78-.07-1.55.23-2.07.83-.85,1.77-.84,3.83.02,5.6.52.6,1.3.92,2.09.85.76.05,1.5-.31,1.93-.95.47-.83.69-1.77.63-2.72.07-.95-.15-1.89-.63-2.71-.46-.61-1.2-.95-1.96-.89h0Z"/>
  <path id="logo_small_svg__Path_2967" class="st0" d="M225.92,102.51h1.5l2.03,5.31c.33.85.61,1.73.83,2.62h.07c.07-.29.23-.78.46-1.48.23-.7,1-2.85,2.29-6.45h1.5l-3.98,10.6c-.27.85-.74,1.62-1.38,2.23-.55.45-1.23.68-1.94.66-.43,0-.85-.05-1.27-.14v-1.13c.34.07.69.1,1.04.1.98,0,1.82-.68,2.06-1.63l.52-1.32-3.73-9.36Z"/>
</svg>